HIERARCHY
ROOT Hips
{
	OFFSET	0	0	0
	CHANNELS 6  Xposition Yposition Zposition Xrotation Yrotation Zrotation
	JOINT Spine
	{
		OFFSET	0	7.06441	1.42252
		CHANNELS 3  Xrotation Yrotation Zrotation
		JOINT Spine1
		{
			OFFSET	0	12.1312	-2.16628
			CHANNELS 3  Xrotation Yrotation Zrotation
			JOINT Spine2
			{
				OFFSET	0	9.19586	0.985658
				CHANNELS 3  Xrotation Yrotation Zrotation
				JOINT Spine3
				{
					OFFSET	0	11.0047	3.27108
					CHANNELS 3  Xrotation Yrotation Zrotation
					JOINT Spine4
					{
						OFFSET	0	16.2904	-1.66804
						CHANNELS 3  Xrotation Yrotation Zrotation
						JOINT Neck
						{
							OFFSET	0	7.77695	-5.4482
							CHANNELS 3  Xrotation Yrotation Zrotation
							JOINT Head
							{
								OFFSET	0	9.33667	-2.7945
								CHANNELS 3  Xrotation Yrotation Zrotation
								End Site
								{
									OFFSET	0	19.4749	-0.942332
								}
							}
						}
					}
					JOINT LeftShoulder
					{
						OFFSET	-4.67917	19.7998	-9.33667
						CHANNELS 3  Xrotation Yrotation Zrotation
						JOINT LeftArm
						{
							OFFSET	-10.2118	-2.7945	3.58522
							CHANNELS 3  Xrotation Yrotation Zrotation
							JOINT LeftForeArm
							{
								OFFSET	-34.1503	-1.55868	2.43761
								CHANNELS 3  Xrotation Yrotation Zrotation
								JOINT LeftHand
								{
									OFFSET	-28.0847	-1.94081	2.00465
									CHANNELS 3  Xrotation Yrotation Zrotation
									End Site
									{
										OFFSET	-10.2495	-0.708301	0.731552
									}
								}
							}
						}
					}
					JOINT RightShoulder
					{
						OFFSET	4.67917	19.7998	-9.33667
						CHANNELS 3  Xrotation Yrotation Zrotation
						JOINT RightArm
						{
							OFFSET	10.2118	-2.7945	3.58522
							CHANNELS 3  Xrotation Yrotation Zrotation
							JOINT RightForeArm
							{
								OFFSET	34.1503	-1.55868	2.43761
								CHANNELS 3  Xrotation Yrotation Zrotation
								JOINT RightHand
								{
									OFFSET	28.0847	-1.94081	2.00465
									CHANNELS 3  Xrotation Yrotation Zrotation
									End Site
									{
										OFFSET	10.2495	-0.708301	0.731552
									}
								}
							}
						}
					}
				}
			}
		}
	}
	JOINT LeftUpLeg
	{
		OFFSET	-9.64713	-3.53221	-0.711262
		CHANNELS 3  Xrotation Yrotation Zrotation
		JOINT LeftLeg
		{
			OFFSET	-2.16918	-42.5043	-0.664435
			CHANNELS 3  Xrotation Yrotation Zrotation
			JOINT LeftFoot
			{
				OFFSET	-2.12038	-39.0853	3.36133
				CHANNELS 3  Xrotation Yrotation Zrotation
				JOINT LeftToeBase
				{
					OFFSET	0	-4.88516	-12.975
					CHANNELS 3  Xrotation Yrotation Zrotation
					End Site
					{
						OFFSET	0	-1.95406	-7.81626
					}
				}
			}
		}
	}
	JOINT RightUpLeg
	{
		OFFSET	9.64713	-3.53221	-0.711262
		CHANNELS 3  Xrotation Yrotation Zrotation
		JOINT RightLeg
		{
			OFFSET	2.16918	-42.5043	-0.664435
			CHANNELS 3  Xrotation Yrotation Zrotation
			JOINT RightFoot
			{
				OFFSET	2.12038	-39.0853	3.36133
				CHANNELS 3  Xrotation Yrotation Zrotation
				JOINT RightToeBase
				{
					OFFSET	0	-4.88516	-12.975
					CHANNELS 3  Xrotation Yrotation Zrotation
					End Site
					{
						OFFSET	0	-1.95406	-7.81626
					}
				}
			}
		}
	}
}
MOTION
Frames: 17
Frame Time: 0.020408
 0 -10.0543 2.86711 -0 0 -0 -0 0 -0 -0 0 -0 -0 0 -0 -0 0 -0 -0 0 -0 -0 0 -0 -0 0 -0 -0 0 -0 -0 0 -0 -0 0 -0 -0 0 -0 -0 0 -0 -0 0 -0 -0 0 -0 -0 0 -0 -0 0 -0 -0 0 -0 -0 0 -0 -0 0 -0 -0 0 -0 -0 0 -0 -0 0 -0 -0 0 -0
 -229.401 89.7184 280.741 170.869 -163.332 179.48 180 179.999 -179.397 7.154 0.00162054 1.00439 8.55631 0.00486161 1.00439 8.97644 0.000810348 0.602631 172.568 -179.974 -179.801 151.819 -173.124 163.173 171.453 -169.059 174.018 1.08561 5.16223 1.98771 141.593 -136.911 -114.565 12.8122 -16.7168 2.01982 -0 7.80419 2.73046 1.47768 -21.7024 -2.10208 53.3373 35.5042 -90.7247 104.313 17.136 -126.256 -0 22.0257 -17.8293 9.51505 -10.758 15.0858 164.865 -168.646 179.983 14.0805 -0.0420207 10.511 177.158 180 -180 41.6145 13.2213 -17.0972 151.909 -161.977 -179.721 168.888 -179.981 169.722 178.93 180 -180
 -229.498 89.6834 280.31 170.685 -163.895 179.299 180 179.998 -179.349 7.18457 0.00431789 1.08539 8.58366 0.0129537 1.08539 8.9875 0.00215919 0.651237 172.6 -179.972 -179.785 151.879 -173.036 163.154 171.468 -168.922 173.994 0.959285 4.88712 1.76166 141.908 -136.945 -114.358 12.8867 -16.7872 2.05522 -0 7.84583 2.9286 1.46275 -21.3245 -2.09662 55.5955 35.4365 -90.8336 104.253 16.9396 -125.928 -0 22.069 -17.604 9.97993 -11.0194 15.6893 164.429 -168.556 179.846 13.419 -0.0433697 10.3197 177.142 180 -180 41.794 12.7937 -17.7101 153.395 -161.826 -179.808 167.454 -179.973 170.413 178.935 180 -180
 -229.839 89.7676 279.971 170.402 -164.643 178.94 9.13759e-05 -0.00755148 0.693268 7.22329 -0.015101 1.15545 8.5818 -0.045303 1.15545 8.88911 -0.00755148 0.693268 172.902 -179.971 -179.771 152.675 -172.703 163.138 171.715 -168.732 173.987 0.71759 4.74682 1.31968 141.593 -137.119 -114.252 12.9052 -16.4918 1.90236 -0 8.03954 3.16384 1.48189 -20.6 -2.15455 58.2837 35.6216 -90.9813 103.989 16.9252 -125.138 -0 22.1188 -17.3136 10.5151 -11.2252 16.2623 163.781 -168.562 179.712 12.6026 0.00103141 10.1364 177.128 180 -180 41.7393 12.3969 -18.3047 154.492 -161.806 -179.914 166.404 -179.991 171.073 178.941 180 -180
 -230.075 89.7905 279.302 170.285 -164.939 178.864 2.63169e-05 -0.00229747 0.656279 7.2545 -0.00459441 1.0938 8.55295 -0.0137832 1.0938 8.73112 -0.00229747 0.656279 173.33 -179.975 -179.783 153.827 -172.224 163.275 172.071 -168.433 174.015 0.499171 4.46703 0.920732 141.26 -137.278 -114.176 12.9181 -16.2935 1.71968 -0 8.10962 3.36014 1.48439 -19.7204 -2.19476 60.4789 36.2161 -90.9465 103.688 16.9684 -124.312 -0 22.1753 -17.0436 10.9067 -11.4645 16.5623 163.063 -168.387 179.889 11.8467 0.0141356 9.97934 177.115 180 -180 41.6819 12.2368 -18.6375 155.545 -161.859 -179.74 165.602 -179.995 171.774 178.945 180 -180
 -230.175 89.8028 278.662 169.957 -165.198 178.718 180 179.995 -179.383 7.29368 0.00991918 1.02903 8.53704 0.0297575 1.02903 8.59366 0.0049601 0.617419 173.725 -179.978 -179.795 154.886 -171.792 163.478 172.396 -168.149 174.058 0.450832 4.09938 0.834859 141.389 -137.267 -113.943 12.9522 -16.1946 1.79057 -0 8.14942 3.59548 1.48063 -18.83 -2.22557 62.4558 36.9112 -90.8165 103.52 16.9183 -123.625 -0 22.3151 -16.8351 11.5429 -11.5711 16.8513 162.548 -167.928 -179.949 11.1137 -0.0304226 9.86524 177.104 180 -180 41.2971 12.235 -18.8588 156.328 -161.953 -179.718 166.356 -179.996 172.494 178.953 180 -180
 -230.711 89.7749 277.958 169.638 -165.694 178.31 1.64322e-06 -0.000164139 0.573579 7.33192 -0.000328248 0.955965 8.51607 -0.000984744 0.955965 8.44038 -0.000164139 0.573579 174.155 -179.981 -179.81 156.046 -171.277 163.71 172.749 -167.744 174.095 0.684947 3.83598 1.27206 142.111 -137.136 -113.538 13.0205 -16.3286 1.91212 -0 8.0731 3.8189 1.45536 -17.9461 -2.22254 65.1475 37.8139 -90.343 103.212 16.9433 -122.938 -0 22.4853 -16.6439 11.7942 -11.4574 17.5907 162.369 -167.59 -179.899 10.2557 -0.0264306 9.76448 177.094 180 -180 41.0558 12.2307 -18.9819 157.012 -161.994 -179.677 166.87 -179.977 173.323 178.96 180 -180
 -231.095 89.521 277.034 169.424 -165.822 178.074 180 179.998 -179.545 7.36794 0.00474903 0.758162 8.51239 0.0142471 0.758162 8.34572 0.00237465 0.454897 174.444 -179.985 -179.849 156.828 -170.865 164.033 172.979 -167.28 174.135 0.871905 3.635 1.62285 142.962 -137.154 -113.294 13.1136 -16.5939 1.99662 -0 7.94249 4.01786 1.41974 -17.0771 -2.20112 68.164 38.0156 -90.2028 102.872 16.8491 -122.459 -0 22.7564 -16.3807 12.3412 -11.6052 18.7692 162.938 -167.096 -179.835 9.34689 0.00349645 9.70476 177.084 180 -180 40.7195 12.3307 -18.8052 157.839 -162.17 -179.797 168.175 179.979 174.175 178.967 180 -180
 -231.311 89.1725 276.243 169.014 -166.151 178.014 180 179.999 -179.676 7.40488 0.00106282 0.540424 8.52079 0.00318847 0.540424 8.28439 0.000531426 0.324255 174.657 -179.99 -179.892 157.386 -170.719 164.142 173.154 -167.279 174.18 0.86673 3.98316 1.60728 143.247 -137.406 -112.897 13.1734 -16.6699 2.03366 -0 7.85226 4.28539 1.39749 -16.4956 -2.18808 70.6302 37.9178 -90.3116 102.578 16.4925 -122.352 -0 23.2074 -16.0435 12.8378 -11.8598 19.6429 163.255 -166.395 -179.971 9.20609 -0.00589261 9.55621 177.076 180 -180 40.6078 12.3898 -18.5465 158.522 -162.244 -179.748 169.93 -180 175.136 178.975 180 -180
 -231.286 88.967 275.299 168.796 -166.31 178.227 180 179.999 -179.784 7.45322 0.00232537 0.360199 8.5095 0.0069761 0.360199 8.13774 0.0011627 0.216119 175.09 -179.994 -179.928 158.542 -170.454 164.203 173.524 -167.407 174.251 0.731014 4.08281 1.35408 143.431 -137.717 -113.085 13.2049 -16.6449 2.04288 -0 7.76599 4.55605 1.40998 -15.6664 -2.2382 73.3595 38.6306 -90.4895 102.32 16.1093 -122.239 -0 23.7442 -15.7673 12.9162 -12.3808 19.9722 163.011 -166.038 179.752 9.35854 0.0124202 9.40936 177.07 180 -180 40.4253 12.4512 -18.1776 158.894 -162.282 -179.857 171.209 -179.973 176.102 178.983 180 -180
 -231.935 88.8949 274.514 168.305 -167.036 177.966 1.82539e-05 -0.00721123 0.145034 7.54863 -0.0144224 0.241723 8.54864 -0.0432671 0.241723 8.03207 -0.00721123 0.145034 175.517 -179.996 -179.952 159.641 -170.235 164.37 173.873 -167.547 174.345 0.823674 4.25886 1.5229 144.063 -137.867 -112.85 13.2799 -16.8231 2.07644 -0 7.66487 4.86897 1.41122 -14.9304 -2.26689 76.1842 40.0772 -90.4392 102.187 15.6343 -122.414 -0 24.2848 -15.5704 12.7333 -13.0589 20.2217 162.989 -165.708 179.777 9.38952 -0.0303364 9.28635 177.064 180 -180 40.257 12.8105 -18.0836 159.205 -162.408 -179.636 172.59 -179.989 177.052 178.99 180 -180
 -231.447 88.9141 273.202 168.703 -166.737 178.501 5.73834e-07 -0.00441871 0.0074407 7.63078 -0.00883741 0.0124012 8.51389 -0.0265122 0.0124012 7.73648 -0.00441871 0.0074407 176.362 -180 -179.998 161.924 -169.622 164.721 174.588 -167.519 174.492 0.859487 4.17947 1.5905 145.162 -137.957 -112.741 13.3973 -17.2214 2.22352 -0 7.49663 5.21549 1.42339 -14.1792 -2.31359 77.8848 42.0886 -90.2135 102.133 15.0362 -122.652 -0 24.9727 -15.4032 12.1154 -13.9919 19.9816 161.829 -165.572 179.758 9.33189 0.0755937 9.15505 177.059 180 -180 39.4656 13.3366 -18.4845 159.276 -162.497 -179.658 173.406 -179.935 178.044 178.996 180 -180
 -231.565 89.0042 272.007 168.546 -166.94 178.825 180 -179.995 179.917 7.72018 -0.010933 -0.137505 8.49007 -0.0327989 -0.137505 7.45662 -0.00546649 -0.0825031 177.184 179.999 179.973 164.152 -169.137 165.223 175.283 -167.605 174.683 0.903388 4.16266 1.67208 146.237 -137.983 -112.724 13.4629 -17.5459 2.22663 -0 7.36043 5.37285 1.412 -13.93 -2.30389 79.2683 43.5329 -89.8465 101.898 14.5929 -123.241 -0 25.5698 -15.3255 11.923 -14.7474 19.6736 160.855 -165.34 179.829 8.98687 0.0359224 9.06425 177.054 180 -180 38.5744 13.9309 -19.1369 159.389 -162.667 -179.438 175.206 -179.972 179.051 179 180 -180
 -231.799 89.0314 270.869 168.197 -167.353 178.617 180 -179.993 179.845 7.75344 -0.0137194 -0.258418 8.49067 -0.0411582 -0.258418 7.38104 -0.00685975 -0.155051 177.423 179.998 179.948 164.781 -168.974 165.202 175.484 -167.674 174.699 0.920608 4.53709 1.69709 147.239 -138.093 -112.367 13.5317 -17.9044 2.34146 -0 7.20407 5.53591 1.40765 -14.0728 -2.29173 80.4444 44.1478 -89.0891 101.851 14.0116 -124.197 -0 26.19 -15.3629 11.6831 -15.1152 19.8179 160.269 -165.197 179.994 8.47129 0.0419051 8.9892 177.049 180 -180 38.0677 14.296 -19.0572 159.347 -162.81 -179.323 176.751 -179.997 179.964 179.005 180 -180
 -231.765 89.1051 269.615 168.787 -167.764 178.907 5.63959e-05 0.0106704 -0.302822 7.77903 0.0213402 -0.504703 8.51866 0.0640206 -0.504703 7.40373 0.0106704 -0.302822 177.418 179.995 179.899 164.748 -168.983 165.237 175.472 -167.649 174.705 0.685585 5.15059 1.25518 147.843 -138.391 -112.169 13.5649 -18.1993 2.41498 -0 7.06531 5.62411 1.34561 -13.913 -2.19602 82.3996 44.2109 -88.7788 101.589 13.6071 -124.764 -0 26.7233 -15.3571 11.5036 -15.3662 20.555 159.592 -165.02 -179.981 7.31935 -0.036477 8.95274 177.041 180 -180 37.4601 14.6653 -18.7334 158.941 -162.834 -179.591 177.058 -179.947 -179.259 179.009 180 -180
 -231.922 89.2515 268.749 169.148 -168.681 179.542 7.52418e-05 0.00868274 -0.496494 7.79536 0.0173643 -0.82749 8.53856 0.052093 -0.82749 7.42492 0.00868274 -0.496494 177.399 179.992 179.835 164.692 -168.923 165.342 175.447 -167.435 174.705 0.392404 5.76564 0.713389 147.972 -138.675 -111.947 13.558 -18.3042 2.54516 -0 7.04727 5.89464 1.29119 -13.7876 -2.11117 83.8169 43.9108 -88.4297 101.168 13.353 -124.795 -0 27.1985 -15.273 10.6971 -15.7935 20.616 159.482 -165.098 179.776 5.73404 -0.0415869 8.79462 177.033 180 -180 37.0471 14.8598 -18.4816 158.723 -163.009 -179.867 177.145 -179.899 -178.613 179.012 180 -180
 -232.115 89.4023 267.742 169.235 -169.47 179.943 0.00017686 0.0154685 -0.655066 7.82158 0.0309335 -1.09178 8.62058 0.0928004 -1.09178 7.60764 0.0154685 -0.655066 177.022 179.989 179.782 163.62 -168.941 165.206 175.099 -166.924 174.583 0.122737 6.14699 0.22215 148.57 -138.921 -111.961 13.5763 -18.7713 2.5378 -0 6.8794 6.09416 1.21532 -14.0789 -1.97814 84.6567 43.3199 -87.8158 100.789 13.1793 -124.464 -0 27.6082 -15.2379 10.3553 -16.0329 20.708 159.897 -164.995 179.731 4.19611 -0.12403 8.68822 177.026 180 -180 36.7954 15.1356 -18.1536 158.498 -163.218 -179.929 177.415 -179.942 -178.119 179.014 180 -180
